<svg width="200" height="200" viewBox="0 0 200 200" fill="none" xmlns="http://www.w3.org/2000/svg">
<path d="M52.3933 79.6713L62.5609 94.1922C63.1053 94.9697 64.1771 95.1587 64.9546 94.6142C65.7322 94.0698 65.9212 92.9981 65.3767 92.2205L55.9262 78.7238C53.2586 74.9141 52.1512 70.2275 52.8313 65.6267L53.1728 63.3164C55.193 49.6506 68.2788 40.4878 81.8114 43.2634L84.0992 43.7327C88.6552 44.6671 92.6803 47.3107 95.3479 51.1204L104.798 64.6171C105.343 65.3947 106.415 65.5837 107.192 65.0392C107.97 64.4947 108.159 63.423 107.614 62.6454L97.4466 48.1246C94.4885 43.9 89.9734 41.0236 84.8945 40.128L81.6089 39.5487C66.6518 36.9113 52.3887 46.8985 49.7514 61.8556L49.172 65.1412C48.2765 70.2201 49.4352 75.4467 52.3933 79.6713Z" stroke="#2563EB" stroke-width="8"/>
<path d="M147.803 120.929L137.635 106.408C137.091 105.63 136.019 105.441 135.241 105.986C134.464 106.53 134.275 107.602 134.819 108.38L144.27 121.876C146.937 125.686 148.045 130.373 147.365 134.973L147.023 137.284C145.003 150.949 131.917 160.112 118.385 157.337L116.097 156.867C111.541 155.933 107.516 153.289 104.848 149.48L95.3976 135.983C94.8531 135.205 93.7814 135.016 93.0038 135.561C92.2262 136.105 92.0373 137.177 92.5817 137.955L102.749 152.475C105.707 156.7 110.223 159.576 115.301 160.472L118.587 161.051C133.544 163.689 147.807 153.702 150.445 138.744L151.024 135.459C151.92 130.38 150.761 125.153 147.803 120.929Z" stroke="#2563EB" stroke-width="8"/>
<path d="M94.0534 92.4486L76.3619 67.1825C76.1682 66.9059 76.266 66.5217 76.5684 66.3715C76.8157 66.2486 77.1157 66.3273 77.2708 66.5556L94.4048 91.7807C94.7771 92.3288 95.3967 92.657 96.0593 92.657L116.979 92.657C117.157 92.657 117.301 92.8012 117.301 92.9792C117.301 93.1572 117.157 93.3015 116.979 93.3015L95.6917 93.3015C95.0392 93.3015 94.4277 92.9831 94.0534 92.4486Z" stroke="#2563EB" stroke-width="10"/>
<path d="M104.575 111.661L124.471 135.372C124.688 135.63 124.624 136.022 124.336 136.198C124.1 136.342 123.794 136.289 123.62 136.075L104.279 112.35C103.902 111.887 103.337 111.617 102.74 111.614L81.7762 111.501C81.6234 111.501 81.5 111.377 81.5 111.224C81.5 111.071 81.6243 110.946 81.7776 110.946L103.043 110.946C103.634 110.946 104.195 111.208 104.575 111.661Z" stroke="#2563EB" stroke-width="10"/>
</svg>
