<svg width="607" height="200" viewBox="0 0 607 200" fill="none" xmlns="http://www.w3.org/2000/svg">
<path d="M52.3933 79.6713L62.5609 94.1922C63.1053 94.9697 64.1771 95.1587 64.9546 94.6142C65.7322 94.0698 65.9212 92.9981 65.3767 92.2205L55.9262 78.7238C53.2586 74.9141 52.1512 70.2275 52.8313 65.6267L53.1728 63.3164C55.193 49.6506 68.2788 40.4878 81.8114 43.2634L84.0992 43.7327C88.6552 44.6671 92.6803 47.3107 95.3479 51.1204L104.798 64.6171C105.343 65.3947 106.415 65.5837 107.192 65.0392C107.97 64.4947 108.159 63.423 107.614 62.6454L97.4466 48.1246C94.4885 43.9 89.9734 41.0236 84.8945 40.128L81.6089 39.5487C66.6518 36.9113 52.3887 46.8985 49.7514 61.8556L49.172 65.1412C48.2765 70.2201 49.4352 75.4467 52.3933 79.6713Z" stroke="#2563EB" stroke-width="8"/>
<path d="M147.803 120.929L137.635 106.408C137.091 105.63 136.019 105.441 135.241 105.986C134.464 106.53 134.275 107.602 134.819 108.38L144.27 121.876C146.937 125.686 148.045 130.373 147.365 134.973L147.023 137.284C145.003 150.949 131.917 160.112 118.385 157.337L116.097 156.867C111.541 155.933 107.516 153.289 104.848 149.48L95.3976 135.983C94.8531 135.205 93.7814 135.016 93.0038 135.561C92.2262 136.105 92.0373 137.177 92.5817 137.955L102.749 152.475C105.707 156.7 110.223 159.576 115.301 160.472L118.587 161.051C133.544 163.689 147.807 153.702 150.445 138.744L151.024 135.459C151.92 130.38 150.761 125.153 147.803 120.929Z" stroke="#2563EB" stroke-width="8"/>
<path d="M94.0534 92.4486L76.3619 67.1825C76.1682 66.9059 76.266 66.5217 76.5684 66.3715C76.8157 66.2486 77.1157 66.3273 77.2708 66.5556L94.4048 91.7807C94.7771 92.3288 95.3967 92.657 96.0593 92.657L116.979 92.657C117.157 92.657 117.301 92.8012 117.301 92.9792C117.301 93.1572 117.157 93.3015 116.979 93.3015L95.6917 93.3015C95.0392 93.3015 94.4277 92.9831 94.0534 92.4486Z" stroke="#2563EB" stroke-width="10"/>
<path d="M104.575 111.661L124.471 135.372C124.688 135.63 124.624 136.022 124.336 136.198C124.1 136.342 123.794 136.289 123.62 136.075L104.279 112.35C103.902 111.887 103.337 111.617 102.74 111.614L81.7762 111.501C81.6234 111.501 81.5 111.377 81.5 111.224C81.5 111.071 81.6243 110.946 81.7776 110.946L103.043 110.946C103.634 110.946 104.195 111.208 104.575 111.661Z" stroke="#2563EB" stroke-width="10"/>
<path d="M253.153 115.959C253.153 114.4 252.912 113.009 252.43 111.784C251.984 110.522 251.149 109.391 249.925 108.389C248.737 107.35 247.049 106.348 244.859 105.383C242.707 104.381 239.924 103.342 236.51 102.266C232.725 101.078 229.199 99.7422 225.934 98.2578C222.668 96.7734 219.792 95.0479 217.306 93.0811C214.856 91.1143 212.945 88.8506 211.572 86.29C210.199 83.6924 209.513 80.6865 209.513 77.2725C209.513 73.9326 210.218 70.8896 211.628 68.1436C213.075 65.3975 215.116 63.041 217.751 61.0742C220.386 59.0703 223.484 57.5303 227.047 56.4541C230.646 55.3779 234.617 54.8398 238.959 54.8398C244.971 54.8398 250.166 55.9346 254.545 58.124C258.961 60.3135 262.375 63.2822 264.787 67.0303C267.199 70.7783 268.405 74.9902 268.405 79.666H253.153C253.153 77.1426 252.615 74.916 251.539 72.9863C250.5 71.0566 248.904 69.5352 246.752 68.4219C244.637 67.3086 241.965 66.752 238.736 66.752C235.619 66.752 233.021 67.2158 230.943 68.1436C228.902 69.0713 227.362 70.333 226.323 71.9287C225.321 73.5244 224.82 75.3057 224.82 77.2725C224.82 78.7568 225.173 80.0928 225.878 81.2803C226.583 82.4307 227.641 83.5254 229.051 84.5645C230.461 85.5664 232.205 86.5127 234.283 87.4033C236.398 88.2568 238.848 89.1104 241.631 89.9639C246.084 91.2998 249.98 92.7842 253.32 94.417C256.697 96.0498 259.499 97.9053 261.726 99.9834C263.989 102.062 265.678 104.399 266.791 106.997C267.941 109.595 268.517 112.545 268.517 115.848C268.517 119.336 267.83 122.453 266.457 125.199C265.084 127.945 263.117 130.283 260.557 132.213C257.996 134.143 254.916 135.608 251.316 136.61C247.754 137.612 243.765 138.113 239.349 138.113C235.415 138.113 231.519 137.594 227.659 136.555C223.837 135.479 220.367 133.883 217.25 131.768C214.133 129.615 211.646 126.906 209.791 123.641C207.936 120.338 207.008 116.479 207.008 112.062H222.371C222.371 114.623 222.779 116.812 223.596 118.631C224.449 120.412 225.637 121.878 227.158 123.028C228.717 124.142 230.535 124.958 232.613 125.478C234.691 125.997 236.937 126.257 239.349 126.257C242.466 126.257 245.026 125.83 247.03 124.977C249.071 124.086 250.593 122.861 251.595 121.303C252.634 119.744 253.153 117.963 253.153 115.959ZM334.089 89.4072V101.431H291.45V89.4072H334.089ZM295.625 55.9531V137H280.317V55.9531H295.625ZM345.444 55.9531V137H330.137V55.9531H345.444ZM361.03 55.9531H390.477C396.637 55.9531 401.925 56.8809 406.341 58.7363C410.757 60.5918 414.152 63.3379 416.527 66.9746C418.902 70.6113 420.09 75.083 420.09 80.3896C420.09 84.583 419.348 88.2197 417.863 91.2998C416.379 94.3799 414.282 96.959 411.573 99.0371C408.901 101.115 405.747 102.748 402.11 103.936L397.323 106.385H371.328L371.217 94.3057H390.644C393.798 94.3057 396.414 93.749 398.492 92.6357C400.57 91.5225 402.129 89.9824 403.168 88.0156C404.244 86.0488 404.782 83.8037 404.782 81.2803C404.782 78.5713 404.263 76.2334 403.224 74.2666C402.185 72.2627 400.607 70.7227 398.492 69.6465C396.377 68.5703 393.705 68.0322 390.477 68.0322H376.338V137H361.03V55.9531ZM406.786 137L388.027 100.707L404.226 100.651L423.207 136.221V137H406.786ZM464.732 55.9531V137H449.48V55.9531H464.732ZM489.893 55.9531V68.0322H424.599V55.9531H489.893ZM510.433 55.9531L528.245 93.749L546.169 55.9531H562.979L536.038 107.331V137H520.508V107.331L493.511 55.9531H510.433Z" fill="#2563EB"/>
</svg>
